<mxfile host="app.diagrams.net" modified="2024-02-04T17:04:49.360Z" agent="Mozilla/5.0 (Windows NT 10.0; Win64; x64) AppleWebKit/537.36 (KHTML, like Gecko) Chrome/121.0.0.0 Safari/537.36 Edg/121.0.0.0" etag="0WEha97e08mgUO3HoxX6" version="23.0.2" type="github">
  <diagram id="R2lEEEUBdFMjLlhIrx00" name="Page-1">
    <mxGraphModel dx="1652" dy="1555" grid="1" gridSize="10" guides="1" tooltips="1" connect="1" arrows="1" fold="1" page="1" pageScale="1" pageWidth="850" pageHeight="1100" math="0" shadow="0" extFonts="Permanent Marker^https://fonts.googleapis.com/css?family=Permanent+Marker">
      <root>
        <mxCell id="0" />
        <mxCell id="1" parent="0" />
        <mxCell id="JlWPOsAmAVWqgajGKJni-34" value="" style="rounded=0;orthogonalLoop=1;jettySize=auto;html=1;exitX=1;exitY=0;exitDx=0;exitDy=0;" edge="1" parent="1" source="JlWPOsAmAVWqgajGKJni-32" target="JlWPOsAmAVWqgajGKJni-33">
          <mxGeometry relative="1" as="geometry" />
        </mxCell>
        <mxCell id="JlWPOsAmAVWqgajGKJni-103" style="edgeStyle=orthogonalEdgeStyle;rounded=0;orthogonalLoop=1;jettySize=auto;html=1;exitX=0.5;exitY=0;exitDx=0;exitDy=0;entryX=0.5;entryY=1;entryDx=0;entryDy=0;" edge="1" parent="1" source="JlWPOsAmAVWqgajGKJni-32" target="JlWPOsAmAVWqgajGKJni-42">
          <mxGeometry relative="1" as="geometry" />
        </mxCell>
        <mxCell id="JlWPOsAmAVWqgajGKJni-105" style="rounded=0;orthogonalLoop=1;jettySize=auto;html=1;exitX=0;exitY=1;exitDx=0;exitDy=0;entryX=0.5;entryY=0;entryDx=0;entryDy=0;" edge="1" parent="1" source="JlWPOsAmAVWqgajGKJni-32" target="JlWPOsAmAVWqgajGKJni-41">
          <mxGeometry relative="1" as="geometry" />
        </mxCell>
        <mxCell id="JlWPOsAmAVWqgajGKJni-126" style="edgeStyle=orthogonalEdgeStyle;rounded=0;orthogonalLoop=1;jettySize=auto;html=1;exitX=0.5;exitY=1;exitDx=0;exitDy=0;entryX=0.5;entryY=0;entryDx=0;entryDy=0;" edge="1" parent="1" source="JlWPOsAmAVWqgajGKJni-32" target="JlWPOsAmAVWqgajGKJni-125">
          <mxGeometry relative="1" as="geometry" />
        </mxCell>
        <mxCell id="JlWPOsAmAVWqgajGKJni-32" value="User" style="whiteSpace=wrap;html=1;aspect=fixed;fillColor=#f8cecc;strokeColor=#b85450;" vertex="1" parent="1">
          <mxGeometry x="160" y="120" width="80" height="80" as="geometry" />
        </mxCell>
        <mxCell id="JlWPOsAmAVWqgajGKJni-33" value="&lt;u&gt;user_id&lt;/u&gt;" style="ellipse;whiteSpace=wrap;html=1;fillColor=#dae8fc;strokeColor=#6c8ebf;" vertex="1" parent="1">
          <mxGeometry x="230" y="-50" width="80" height="80" as="geometry" />
        </mxCell>
        <mxCell id="JlWPOsAmAVWqgajGKJni-35" value="username" style="ellipse;whiteSpace=wrap;html=1;fillColor=#dae8fc;strokeColor=#6c8ebf;" vertex="1" parent="1">
          <mxGeometry x="100" y="-50" width="80" height="80" as="geometry" />
        </mxCell>
        <mxCell id="JlWPOsAmAVWqgajGKJni-37" value="password" style="ellipse;whiteSpace=wrap;html=1;fillColor=#dae8fc;strokeColor=#6c8ebf;" vertex="1" parent="1">
          <mxGeometry x="230" y="250" width="80" height="80" as="geometry" />
        </mxCell>
        <mxCell id="JlWPOsAmAVWqgajGKJni-41" value="email_id" style="ellipse;whiteSpace=wrap;html=1;aspect=fixed;fillColor=#dae8fc;strokeColor=#6c8ebf;" vertex="1" parent="1">
          <mxGeometry x="100" y="250" width="80" height="80" as="geometry" />
        </mxCell>
        <mxCell id="JlWPOsAmAVWqgajGKJni-42" value="&lt;i&gt;profile_id&lt;/i&gt;" style="ellipse;whiteSpace=wrap;html=1;aspect=fixed;fillColor=#dae8fc;strokeColor=#6c8ebf;" vertex="1" parent="1">
          <mxGeometry x="160" y="-160" width="80" height="80" as="geometry" />
        </mxCell>
        <mxCell id="JlWPOsAmAVWqgajGKJni-44" value="Has" style="rhombus;whiteSpace=wrap;html=1;fillColor=#d5e8d4;strokeColor=#82b366;" vertex="1" parent="1">
          <mxGeometry x="345" y="100" width="80" height="80" as="geometry" />
        </mxCell>
        <mxCell id="JlWPOsAmAVWqgajGKJni-46" value="" style="edgeStyle=entityRelationEdgeStyle;fontSize=12;html=1;endArrow=ERone;endFill=1;rounded=0;exitX=0;exitY=0.5;exitDx=0;exitDy=0;entryX=1;entryY=0.25;entryDx=0;entryDy=0;" edge="1" parent="1" source="JlWPOsAmAVWqgajGKJni-44" target="JlWPOsAmAVWqgajGKJni-32">
          <mxGeometry width="100" height="100" relative="1" as="geometry">
            <mxPoint x="390" y="110" as="sourcePoint" />
            <mxPoint x="290" y="210" as="targetPoint" />
          </mxGeometry>
        </mxCell>
        <mxCell id="JlWPOsAmAVWqgajGKJni-51" value="" style="rounded=0;orthogonalLoop=1;jettySize=auto;html=1;" edge="1" parent="1" source="JlWPOsAmAVWqgajGKJni-48" target="JlWPOsAmAVWqgajGKJni-50">
          <mxGeometry relative="1" as="geometry" />
        </mxCell>
        <mxCell id="JlWPOsAmAVWqgajGKJni-62" style="rounded=0;orthogonalLoop=1;jettySize=auto;html=1;exitX=1;exitY=0.5;exitDx=0;exitDy=0;entryX=0;entryY=0.5;entryDx=0;entryDy=0;" edge="1" parent="1" source="JlWPOsAmAVWqgajGKJni-48">
          <mxGeometry relative="1" as="geometry">
            <mxPoint x="760" y="150" as="targetPoint" />
          </mxGeometry>
        </mxCell>
        <mxCell id="JlWPOsAmAVWqgajGKJni-63" style="rounded=0;orthogonalLoop=1;jettySize=auto;html=1;exitX=1;exitY=1;exitDx=0;exitDy=0;entryX=0;entryY=0;entryDx=0;entryDy=0;" edge="1" parent="1" source="JlWPOsAmAVWqgajGKJni-48" target="JlWPOsAmAVWqgajGKJni-57">
          <mxGeometry relative="1" as="geometry" />
        </mxCell>
        <mxCell id="JlWPOsAmAVWqgajGKJni-48" value="Profile" style="whiteSpace=wrap;html=1;aspect=fixed;fillColor=#f8cecc;strokeColor=#b85450;" vertex="1" parent="1">
          <mxGeometry x="580" y="100" width="80" height="80" as="geometry" />
        </mxCell>
        <mxCell id="JlWPOsAmAVWqgajGKJni-49" value="" style="edgeStyle=entityRelationEdgeStyle;fontSize=12;html=1;endArrow=ERone;endFill=1;rounded=0;entryX=0;entryY=0.5;entryDx=0;entryDy=0;exitX=1;exitY=0.5;exitDx=0;exitDy=0;" edge="1" parent="1" source="JlWPOsAmAVWqgajGKJni-44" target="JlWPOsAmAVWqgajGKJni-48">
          <mxGeometry width="100" height="100" relative="1" as="geometry">
            <mxPoint x="440" y="220.5" as="sourcePoint" />
            <mxPoint x="545" y="220" as="targetPoint" />
          </mxGeometry>
        </mxCell>
        <mxCell id="JlWPOsAmAVWqgajGKJni-50" value="&lt;u&gt;profile_id&lt;/u&gt;" style="ellipse;whiteSpace=wrap;html=1;fillColor=#dae8fc;strokeColor=#6c8ebf;" vertex="1" parent="1">
          <mxGeometry x="450" width="80" height="80" as="geometry" />
        </mxCell>
        <mxCell id="JlWPOsAmAVWqgajGKJni-52" value="first_name" style="ellipse;whiteSpace=wrap;html=1;fillColor=#dae8fc;strokeColor=#6c8ebf;" vertex="1" parent="1">
          <mxGeometry x="530" y="-90" width="80" height="80" as="geometry" />
        </mxCell>
        <mxCell id="JlWPOsAmAVWqgajGKJni-54" value="last_name" style="ellipse;whiteSpace=wrap;html=1;fillColor=#dae8fc;strokeColor=#6c8ebf;" vertex="1" parent="1">
          <mxGeometry x="650" y="-90" width="80" height="80" as="geometry" />
        </mxCell>
        <mxCell id="JlWPOsAmAVWqgajGKJni-56" value="date_of_birth" style="ellipse;whiteSpace=wrap;html=1;aspect=fixed;fillColor=#dae8fc;strokeColor=#6c8ebf;" vertex="1" parent="1">
          <mxGeometry x="760" y="110" width="80" height="80" as="geometry" />
        </mxCell>
        <mxCell id="JlWPOsAmAVWqgajGKJni-57" value="address" style="ellipse;whiteSpace=wrap;html=1;aspect=fixed;fillColor=#dae8fc;strokeColor=#6c8ebf;" vertex="1" parent="1">
          <mxGeometry x="710" y="220" width="80" height="80" as="geometry" />
        </mxCell>
        <mxCell id="JlWPOsAmAVWqgajGKJni-58" value="gender" style="ellipse;whiteSpace=wrap;html=1;aspect=fixed;fillColor=#dae8fc;strokeColor=#6c8ebf;" vertex="1" parent="1">
          <mxGeometry x="740" y="-10" width="80" height="80" as="geometry" />
        </mxCell>
        <mxCell id="JlWPOsAmAVWqgajGKJni-59" value="" style="rounded=0;orthogonalLoop=1;jettySize=auto;html=1;exitX=0.25;exitY=0;exitDx=0;exitDy=0;entryX=0.6;entryY=1.06;entryDx=0;entryDy=0;entryPerimeter=0;" edge="1" parent="1" source="JlWPOsAmAVWqgajGKJni-48" target="JlWPOsAmAVWqgajGKJni-52">
          <mxGeometry relative="1" as="geometry">
            <mxPoint x="599" y="95" as="sourcePoint" />
            <mxPoint x="541" y="50" as="targetPoint" />
          </mxGeometry>
        </mxCell>
        <mxCell id="JlWPOsAmAVWqgajGKJni-60" value="" style="rounded=0;orthogonalLoop=1;jettySize=auto;html=1;exitX=0.5;exitY=0;exitDx=0;exitDy=0;entryX=0.25;entryY=1;entryDx=0;entryDy=0;entryPerimeter=0;" edge="1" parent="1" source="JlWPOsAmAVWqgajGKJni-48" target="JlWPOsAmAVWqgajGKJni-54">
          <mxGeometry relative="1" as="geometry">
            <mxPoint x="610" y="110" as="sourcePoint" />
            <mxPoint x="580" as="targetPoint" />
          </mxGeometry>
        </mxCell>
        <mxCell id="JlWPOsAmAVWqgajGKJni-61" value="" style="rounded=0;orthogonalLoop=1;jettySize=auto;html=1;exitX=1;exitY=0;exitDx=0;exitDy=0;entryX=0;entryY=0.75;entryDx=0;entryDy=0;entryPerimeter=0;" edge="1" parent="1" source="JlWPOsAmAVWqgajGKJni-48" target="JlWPOsAmAVWqgajGKJni-58">
          <mxGeometry relative="1" as="geometry">
            <mxPoint x="630" y="110" as="sourcePoint" />
            <mxPoint x="672" y="-12" as="targetPoint" />
          </mxGeometry>
        </mxCell>
        <mxCell id="JlWPOsAmAVWqgajGKJni-66" value="" style="edgeStyle=entityRelationEdgeStyle;fontSize=12;html=1;endArrow=ERone;endFill=1;rounded=0;exitX=0;exitY=0.5;exitDx=0;exitDy=0;entryX=1;entryY=0.5;entryDx=0;entryDy=0;" edge="1" source="JlWPOsAmAVWqgajGKJni-67" parent="1" target="JlWPOsAmAVWqgajGKJni-32">
          <mxGeometry width="100" height="100" relative="1" as="geometry">
            <mxPoint x="400" y="250" as="sourcePoint" />
            <mxPoint x="200" y="160" as="targetPoint" />
          </mxGeometry>
        </mxCell>
        <mxCell id="JlWPOsAmAVWqgajGKJni-67" value="Has" style="rhombus;whiteSpace=wrap;html=1;fillColor=#d5e8d4;strokeColor=#82b366;" vertex="1" parent="1">
          <mxGeometry x="425" y="230" width="80" height="80" as="geometry" />
        </mxCell>
        <mxCell id="JlWPOsAmAVWqgajGKJni-96" style="rounded=0;orthogonalLoop=1;jettySize=auto;html=1;exitX=1;exitY=0.5;exitDx=0;exitDy=0;entryX=0;entryY=0.5;entryDx=0;entryDy=0;" edge="1" parent="1" source="JlWPOsAmAVWqgajGKJni-81" target="JlWPOsAmAVWqgajGKJni-90">
          <mxGeometry relative="1" as="geometry" />
        </mxCell>
        <mxCell id="JlWPOsAmAVWqgajGKJni-97" style="rounded=0;orthogonalLoop=1;jettySize=auto;html=1;exitX=1;exitY=1;exitDx=0;exitDy=0;entryX=0;entryY=0;entryDx=0;entryDy=0;" edge="1" parent="1" source="JlWPOsAmAVWqgajGKJni-81" target="JlWPOsAmAVWqgajGKJni-89">
          <mxGeometry relative="1" as="geometry" />
        </mxCell>
        <mxCell id="JlWPOsAmAVWqgajGKJni-81" value="Transactions" style="whiteSpace=wrap;html=1;aspect=fixed;fillColor=#f8cecc;strokeColor=#b85450;" vertex="1" parent="1">
          <mxGeometry x="425" y="420" width="80" height="80" as="geometry" />
        </mxCell>
        <mxCell id="JlWPOsAmAVWqgajGKJni-87" style="edgeStyle=orthogonalEdgeStyle;rounded=0;orthogonalLoop=1;jettySize=auto;html=1;exitX=0.5;exitY=1;exitDx=0;exitDy=0;" edge="1" parent="1" source="JlWPOsAmAVWqgajGKJni-82" target="JlWPOsAmAVWqgajGKJni-85">
          <mxGeometry relative="1" as="geometry" />
        </mxCell>
        <mxCell id="JlWPOsAmAVWqgajGKJni-82" value="Category" style="whiteSpace=wrap;html=1;aspect=fixed;fillColor=#f8cecc;strokeColor=#b85450;" vertex="1" parent="1">
          <mxGeometry x="80" y="420" width="80" height="80" as="geometry" />
        </mxCell>
        <mxCell id="JlWPOsAmAVWqgajGKJni-83" value="" style="fontSize=12;html=1;endArrow=ERmandOne;startArrow=ERmandOne;rounded=0;entryX=0;entryY=0.5;entryDx=0;entryDy=0;exitX=1;exitY=0.5;exitDx=0;exitDy=0;edgeStyle=orthogonalEdgeStyle;" edge="1" parent="1" source="JlWPOsAmAVWqgajGKJni-82" target="JlWPOsAmAVWqgajGKJni-81">
          <mxGeometry width="100" height="100" relative="1" as="geometry">
            <mxPoint x="179.99999999999977" y="440" as="sourcePoint" />
            <mxPoint x="339.9999999999998" y="440" as="targetPoint" />
          </mxGeometry>
        </mxCell>
        <mxCell id="JlWPOsAmAVWqgajGKJni-84" value="category_name" style="ellipse;whiteSpace=wrap;html=1;aspect=fixed;fillColor=#dae8fc;strokeColor=#6c8ebf;" vertex="1" parent="1">
          <mxGeometry x="-35" y="510" width="90" height="90" as="geometry" />
        </mxCell>
        <mxCell id="JlWPOsAmAVWqgajGKJni-85" value="&lt;u&gt;category_id&lt;/u&gt;" style="ellipse;whiteSpace=wrap;html=1;aspect=fixed;fillColor=#dae8fc;strokeColor=#6c8ebf;" vertex="1" parent="1">
          <mxGeometry x="80" y="580" width="80" height="80" as="geometry" />
        </mxCell>
        <mxCell id="JlWPOsAmAVWqgajGKJni-86" style="rounded=0;orthogonalLoop=1;jettySize=auto;html=1;exitX=0;exitY=1;exitDx=0;exitDy=0;" edge="1" parent="1" source="JlWPOsAmAVWqgajGKJni-82" target="JlWPOsAmAVWqgajGKJni-84">
          <mxGeometry relative="1" as="geometry" />
        </mxCell>
        <mxCell id="JlWPOsAmAVWqgajGKJni-88" value="amount" style="ellipse;whiteSpace=wrap;html=1;aspect=fixed;fillColor=#dae8fc;strokeColor=#6c8ebf;" vertex="1" parent="1">
          <mxGeometry x="750" y="390" width="80" height="80" as="geometry" />
        </mxCell>
        <mxCell id="JlWPOsAmAVWqgajGKJni-89" value="&lt;i&gt;category_id&lt;/i&gt;" style="ellipse;whiteSpace=wrap;html=1;aspect=fixed;fillColor=#dae8fc;strokeColor=#6c8ebf;" vertex="1" parent="1">
          <mxGeometry x="550" y="570" width="80" height="80" as="geometry" />
        </mxCell>
        <mxCell id="JlWPOsAmAVWqgajGKJni-90" value="description&lt;span style=&quot;white-space: pre;&quot;&gt;&#x9;&lt;/span&gt;" style="ellipse;whiteSpace=wrap;html=1;aspect=fixed;fillColor=#dae8fc;strokeColor=#6c8ebf;" vertex="1" parent="1">
          <mxGeometry x="620" y="440" width="80" height="80" as="geometry" />
        </mxCell>
        <mxCell id="JlWPOsAmAVWqgajGKJni-91" value="&lt;u&gt;transaction_id&lt;/u&gt;" style="ellipse;whiteSpace=wrap;html=1;aspect=fixed;fillColor=#dae8fc;strokeColor=#6c8ebf;" vertex="1" parent="1">
          <mxGeometry x="520" y="280" width="80" height="80" as="geometry" />
        </mxCell>
        <mxCell id="JlWPOsAmAVWqgajGKJni-92" value="timestamp" style="ellipse;whiteSpace=wrap;html=1;aspect=fixed;fillColor=#dae8fc;strokeColor=#6c8ebf;" vertex="1" parent="1">
          <mxGeometry x="690" y="530" width="80" height="80" as="geometry" />
        </mxCell>
        <mxCell id="JlWPOsAmAVWqgajGKJni-93" value="&lt;i&gt;user_id&lt;/i&gt;" style="ellipse;whiteSpace=wrap;html=1;aspect=fixed;fillColor=#dae8fc;strokeColor=#6c8ebf;" vertex="1" parent="1">
          <mxGeometry x="670" y="310" width="80" height="80" as="geometry" />
        </mxCell>
        <mxCell id="JlWPOsAmAVWqgajGKJni-94" style="rounded=0;orthogonalLoop=1;jettySize=auto;html=1;exitX=1;exitY=0;exitDx=0;exitDy=0;entryX=0.245;entryY=0.915;entryDx=0;entryDy=0;entryPerimeter=0;" edge="1" parent="1" source="JlWPOsAmAVWqgajGKJni-81" target="JlWPOsAmAVWqgajGKJni-91">
          <mxGeometry relative="1" as="geometry" />
        </mxCell>
        <mxCell id="JlWPOsAmAVWqgajGKJni-95" style="rounded=0;orthogonalLoop=1;jettySize=auto;html=1;exitX=1;exitY=0.25;exitDx=0;exitDy=0;entryX=0;entryY=0.75;entryDx=0;entryDy=0;entryPerimeter=0;" edge="1" parent="1" source="JlWPOsAmAVWqgajGKJni-81" target="JlWPOsAmAVWqgajGKJni-93">
          <mxGeometry relative="1" as="geometry" />
        </mxCell>
        <mxCell id="JlWPOsAmAVWqgajGKJni-98" style="rounded=0;orthogonalLoop=1;jettySize=auto;html=1;exitX=1;exitY=0.75;exitDx=0;exitDy=0;entryX=-0.04;entryY=0.39;entryDx=0;entryDy=0;entryPerimeter=0;" edge="1" parent="1" source="JlWPOsAmAVWqgajGKJni-81" target="JlWPOsAmAVWqgajGKJni-92">
          <mxGeometry relative="1" as="geometry" />
        </mxCell>
        <mxCell id="JlWPOsAmAVWqgajGKJni-99" style="rounded=0;orthogonalLoop=1;jettySize=auto;html=1;exitX=1;exitY=0.25;exitDx=0;exitDy=0;entryX=0;entryY=0.5;entryDx=0;entryDy=0;" edge="1" parent="1" source="JlWPOsAmAVWqgajGKJni-81" target="JlWPOsAmAVWqgajGKJni-88">
          <mxGeometry relative="1" as="geometry" />
        </mxCell>
        <mxCell id="JlWPOsAmAVWqgajGKJni-104" style="rounded=0;orthogonalLoop=1;jettySize=auto;html=1;exitX=0;exitY=0;exitDx=0;exitDy=0;entryX=0.605;entryY=1.038;entryDx=0;entryDy=0;entryPerimeter=0;" edge="1" parent="1" source="JlWPOsAmAVWqgajGKJni-32" target="JlWPOsAmAVWqgajGKJni-35">
          <mxGeometry relative="1" as="geometry" />
        </mxCell>
        <mxCell id="JlWPOsAmAVWqgajGKJni-106" style="rounded=0;orthogonalLoop=1;jettySize=auto;html=1;exitX=1;exitY=1;exitDx=0;exitDy=0;entryX=0.359;entryY=0.06;entryDx=0;entryDy=0;entryPerimeter=0;" edge="1" parent="1" source="JlWPOsAmAVWqgajGKJni-32" target="JlWPOsAmAVWqgajGKJni-37">
          <mxGeometry relative="1" as="geometry" />
        </mxCell>
        <mxCell id="JlWPOsAmAVWqgajGKJni-127" style="rounded=0;orthogonalLoop=1;jettySize=auto;html=1;exitX=1;exitY=0;exitDx=0;exitDy=0;entryX=0;entryY=1;entryDx=0;entryDy=0;" edge="1" parent="1" source="JlWPOsAmAVWqgajGKJni-108" target="JlWPOsAmAVWqgajGKJni-117">
          <mxGeometry relative="1" as="geometry" />
        </mxCell>
        <mxCell id="JlWPOsAmAVWqgajGKJni-132" style="rounded=0;orthogonalLoop=1;jettySize=auto;html=1;exitX=0;exitY=0.5;exitDx=0;exitDy=0;entryX=1;entryY=0.5;entryDx=0;entryDy=0;" edge="1" parent="1" source="JlWPOsAmAVWqgajGKJni-108" target="JlWPOsAmAVWqgajGKJni-114">
          <mxGeometry relative="1" as="geometry" />
        </mxCell>
        <mxCell id="JlWPOsAmAVWqgajGKJni-133" style="rounded=0;orthogonalLoop=1;jettySize=auto;html=1;exitX=0;exitY=1;exitDx=0;exitDy=0;entryX=1;entryY=0;entryDx=0;entryDy=0;" edge="1" parent="1" source="JlWPOsAmAVWqgajGKJni-108" target="JlWPOsAmAVWqgajGKJni-120">
          <mxGeometry relative="1" as="geometry" />
        </mxCell>
        <mxCell id="JlWPOsAmAVWqgajGKJni-108" value="Budget" style="whiteSpace=wrap;html=1;aspect=fixed;fillColor=#f8cecc;strokeColor=#b85450;" vertex="1" parent="1">
          <mxGeometry x="-220" y="305" width="80" height="80" as="geometry" />
        </mxCell>
        <mxCell id="JlWPOsAmAVWqgajGKJni-109" value="Has" style="rhombus;whiteSpace=wrap;html=1;fillColor=#d5e8d4;strokeColor=#82b366;" vertex="1" parent="1">
          <mxGeometry x="-80" y="305" width="80" height="80" as="geometry" />
        </mxCell>
        <mxCell id="JlWPOsAmAVWqgajGKJni-110" value="" style="fontSize=12;html=1;endArrow=ERzeroToMany;endFill=1;rounded=0;exitX=0.5;exitY=1;exitDx=0;exitDy=0;entryX=0.5;entryY=0;entryDx=0;entryDy=0;" edge="1" parent="1" source="JlWPOsAmAVWqgajGKJni-67" target="JlWPOsAmAVWqgajGKJni-81">
          <mxGeometry width="100" height="100" relative="1" as="geometry">
            <mxPoint x="310" y="440" as="sourcePoint" />
            <mxPoint x="410" y="340" as="targetPoint" />
          </mxGeometry>
        </mxCell>
        <mxCell id="JlWPOsAmAVWqgajGKJni-111" value="" style="edgeStyle=entityRelationEdgeStyle;fontSize=12;html=1;endArrow=ERzeroToMany;endFill=1;rounded=0;exitX=0;exitY=0.5;exitDx=0;exitDy=0;entryX=1;entryY=0.5;entryDx=0;entryDy=0;" edge="1" parent="1" source="JlWPOsAmAVWqgajGKJni-109" target="JlWPOsAmAVWqgajGKJni-108">
          <mxGeometry width="100" height="100" relative="1" as="geometry">
            <mxPoint x="-200" y="290" as="sourcePoint" />
            <mxPoint x="-100" y="190" as="targetPoint" />
          </mxGeometry>
        </mxCell>
        <mxCell id="JlWPOsAmAVWqgajGKJni-112" value="" style="edgeStyle=entityRelationEdgeStyle;fontSize=12;html=1;endArrow=ERone;endFill=1;rounded=0;entryX=0;entryY=0.75;entryDx=0;entryDy=0;exitX=1;exitY=0.5;exitDx=0;exitDy=0;" edge="1" parent="1" source="JlWPOsAmAVWqgajGKJni-109" target="JlWPOsAmAVWqgajGKJni-32">
          <mxGeometry width="100" height="100" relative="1" as="geometry">
            <mxPoint x="5" y="210.00263157894756" as="sourcePoint" />
            <mxPoint x="160" y="210.00263157894756" as="targetPoint" />
          </mxGeometry>
        </mxCell>
        <mxCell id="JlWPOsAmAVWqgajGKJni-113" value="&lt;i&gt;user_id&lt;/i&gt;" style="ellipse;whiteSpace=wrap;html=1;aspect=fixed;fillColor=#dae8fc;strokeColor=#6c8ebf;" vertex="1" parent="1">
          <mxGeometry x="-180" y="135" width="80" height="80" as="geometry" />
        </mxCell>
        <mxCell id="JlWPOsAmAVWqgajGKJni-114" value="start_date" style="ellipse;whiteSpace=wrap;html=1;aspect=fixed;fillColor=#dae8fc;strokeColor=#6c8ebf;" vertex="1" parent="1">
          <mxGeometry x="-390" y="325" width="80" height="80" as="geometry" />
        </mxCell>
        <mxCell id="JlWPOsAmAVWqgajGKJni-115" value="amount" style="ellipse;whiteSpace=wrap;html=1;aspect=fixed;fillColor=#dae8fc;strokeColor=#6c8ebf;" vertex="1" parent="1">
          <mxGeometry x="-370" y="215" width="80" height="80" as="geometry" />
        </mxCell>
        <mxCell id="JlWPOsAmAVWqgajGKJni-116" value="&lt;i&gt;category_id&lt;/i&gt;" style="ellipse;whiteSpace=wrap;html=1;aspect=fixed;fillColor=#dae8fc;strokeColor=#6c8ebf;" vertex="1" parent="1">
          <mxGeometry x="-300" y="135" width="80" height="80" as="geometry" />
        </mxCell>
        <mxCell id="JlWPOsAmAVWqgajGKJni-117" value="&lt;u&gt;budget_id&lt;/u&gt;" style="ellipse;whiteSpace=wrap;html=1;aspect=fixed;fillColor=#dae8fc;strokeColor=#6c8ebf;" vertex="1" parent="1">
          <mxGeometry x="-90" y="195" width="80" height="80" as="geometry" />
        </mxCell>
        <mxCell id="JlWPOsAmAVWqgajGKJni-119" value="" style="edgeStyle=orthogonalEdgeStyle;fontSize=12;html=1;endArrow=ERzeroToMany;startArrow=ERmandOne;rounded=0;exitX=0.5;exitY=1;exitDx=0;exitDy=0;entryX=0;entryY=0.5;entryDx=0;entryDy=0;" edge="1" parent="1" source="JlWPOsAmAVWqgajGKJni-108" target="JlWPOsAmAVWqgajGKJni-82">
          <mxGeometry width="100" height="100" relative="1" as="geometry">
            <mxPoint x="-130" y="390" as="sourcePoint" />
            <mxPoint x="-30" y="290" as="targetPoint" />
          </mxGeometry>
        </mxCell>
        <mxCell id="JlWPOsAmAVWqgajGKJni-120" value="end_date" style="ellipse;whiteSpace=wrap;html=1;aspect=fixed;fillColor=#dae8fc;strokeColor=#6c8ebf;" vertex="1" parent="1">
          <mxGeometry x="-310" y="425" width="80" height="80" as="geometry" />
        </mxCell>
        <mxCell id="JlWPOsAmAVWqgajGKJni-125" value="balance" style="ellipse;whiteSpace=wrap;html=1;aspect=fixed;fillColor=#dae8fc;strokeColor=#6c8ebf;dashed=1;" vertex="1" parent="1">
          <mxGeometry x="160" y="340" width="80" height="80" as="geometry" />
        </mxCell>
        <mxCell id="JlWPOsAmAVWqgajGKJni-128" style="rounded=0;orthogonalLoop=1;jettySize=auto;html=1;exitX=0.75;exitY=0;exitDx=0;exitDy=0;entryX=0.263;entryY=1.006;entryDx=0;entryDy=0;entryPerimeter=0;" edge="1" parent="1" source="JlWPOsAmAVWqgajGKJni-108" target="JlWPOsAmAVWqgajGKJni-113">
          <mxGeometry relative="1" as="geometry" />
        </mxCell>
        <mxCell id="JlWPOsAmAVWqgajGKJni-130" style="rounded=0;orthogonalLoop=1;jettySize=auto;html=1;exitX=0.25;exitY=0;exitDx=0;exitDy=0;entryX=0.751;entryY=1.017;entryDx=0;entryDy=0;entryPerimeter=0;" edge="1" parent="1" source="JlWPOsAmAVWqgajGKJni-108" target="JlWPOsAmAVWqgajGKJni-116">
          <mxGeometry relative="1" as="geometry" />
        </mxCell>
        <mxCell id="JlWPOsAmAVWqgajGKJni-131" style="rounded=0;orthogonalLoop=1;jettySize=auto;html=1;exitX=0;exitY=0;exitDx=0;exitDy=0;entryX=0.949;entryY=0.883;entryDx=0;entryDy=0;entryPerimeter=0;" edge="1" parent="1" source="JlWPOsAmAVWqgajGKJni-108" target="JlWPOsAmAVWqgajGKJni-115">
          <mxGeometry relative="1" as="geometry" />
        </mxCell>
        <mxCell id="JlWPOsAmAVWqgajGKJni-134" value="" style="edgeStyle=entityRelationEdgeStyle;fontSize=12;html=1;endArrow=ERone;endFill=1;rounded=0;entryX=0;entryY=0.5;entryDx=0;entryDy=0;exitX=1;exitY=0.5;exitDx=0;exitDy=0;" edge="1" parent="1" source="JlWPOsAmAVWqgajGKJni-136" target="JlWPOsAmAVWqgajGKJni-32">
          <mxGeometry width="100" height="100" relative="1" as="geometry">
            <mxPoint x="-20" as="sourcePoint" />
            <mxPoint x="80" y="40" as="targetPoint" />
          </mxGeometry>
        </mxCell>
        <mxCell id="JlWPOsAmAVWqgajGKJni-136" value="Has" style="rhombus;whiteSpace=wrap;html=1;fillColor=#d5e8d4;strokeColor=#82b366;" vertex="1" parent="1">
          <mxGeometry x="-240" width="80" height="80" as="geometry" />
        </mxCell>
        <mxCell id="JlWPOsAmAVWqgajGKJni-137" value="" style="fontSize=12;html=1;endArrow=ERzeroToMany;endFill=1;rounded=0;exitX=0;exitY=0.5;exitDx=0;exitDy=0;entryX=1;entryY=0.5;entryDx=0;entryDy=0;" edge="1" source="JlWPOsAmAVWqgajGKJni-136" parent="1" target="JlWPOsAmAVWqgajGKJni-138">
          <mxGeometry width="100" height="100" relative="1" as="geometry">
            <mxPoint x="-230" y="-30" as="sourcePoint" />
            <mxPoint x="-290" y="-30" as="targetPoint" />
          </mxGeometry>
        </mxCell>
        <mxCell id="JlWPOsAmAVWqgajGKJni-166" style="rounded=0;orthogonalLoop=1;jettySize=auto;html=1;" edge="1" parent="1" source="JlWPOsAmAVWqgajGKJni-138" target="JlWPOsAmAVWqgajGKJni-153">
          <mxGeometry relative="1" as="geometry" />
        </mxCell>
        <mxCell id="JlWPOsAmAVWqgajGKJni-169" style="rounded=0;orthogonalLoop=1;jettySize=auto;html=1;entryX=0.5;entryY=0;entryDx=0;entryDy=0;" edge="1" parent="1" source="JlWPOsAmAVWqgajGKJni-138" target="JlWPOsAmAVWqgajGKJni-151">
          <mxGeometry relative="1" as="geometry" />
        </mxCell>
        <mxCell id="JlWPOsAmAVWqgajGKJni-170" style="rounded=0;orthogonalLoop=1;jettySize=auto;html=1;exitX=0;exitY=0;exitDx=0;exitDy=0;entryX=1;entryY=1;entryDx=0;entryDy=0;" edge="1" parent="1" source="JlWPOsAmAVWqgajGKJni-138" target="JlWPOsAmAVWqgajGKJni-154">
          <mxGeometry relative="1" as="geometry" />
        </mxCell>
        <mxCell id="JlWPOsAmAVWqgajGKJni-138" value="investment" style="whiteSpace=wrap;html=1;aspect=fixed;fillColor=#f8cecc;strokeColor=#b85450;" vertex="1" parent="1">
          <mxGeometry x="-425" width="70" height="70" as="geometry" />
        </mxCell>
        <mxCell id="JlWPOsAmAVWqgajGKJni-139" value="Has" style="rhombus;whiteSpace=wrap;html=1;fillColor=#d5e8d4;strokeColor=#82b366;" vertex="1" parent="1">
          <mxGeometry x="-30" y="-10" width="80" height="80" as="geometry" />
        </mxCell>
        <mxCell id="JlWPOsAmAVWqgajGKJni-140" value="" style="edgeStyle=entityRelationEdgeStyle;fontSize=12;html=1;endArrow=ERone;endFill=1;rounded=0;entryX=0;entryY=0.25;entryDx=0;entryDy=0;exitX=1;exitY=0.5;exitDx=0;exitDy=0;" edge="1" source="JlWPOsAmAVWqgajGKJni-139" parent="1" target="JlWPOsAmAVWqgajGKJni-32">
          <mxGeometry width="100" height="100" relative="1" as="geometry">
            <mxPoint x="-70" y="-120" as="sourcePoint" />
            <mxPoint x="110" y="40" as="targetPoint" />
          </mxGeometry>
        </mxCell>
        <mxCell id="JlWPOsAmAVWqgajGKJni-141" value="" style="fontSize=12;html=1;endArrow=ERzeroToMany;endFill=1;rounded=0;exitX=0.5;exitY=0;exitDx=0;exitDy=0;entryX=0.5;entryY=1;entryDx=0;entryDy=0;edgeStyle=orthogonalEdgeStyle;" edge="1" source="JlWPOsAmAVWqgajGKJni-139" parent="1" target="JlWPOsAmAVWqgajGKJni-142">
          <mxGeometry width="100" height="100" relative="1" as="geometry">
            <mxPoint x="-280" y="-150" as="sourcePoint" />
            <mxPoint x="-30" y="-110" as="targetPoint" />
          </mxGeometry>
        </mxCell>
        <mxCell id="JlWPOsAmAVWqgajGKJni-142" value="financial&lt;br&gt;goal" style="whiteSpace=wrap;html=1;aspect=fixed;fillColor=#f8cecc;strokeColor=#b85450;" vertex="1" parent="1">
          <mxGeometry x="-115" y="-190" width="80" height="80" as="geometry" />
        </mxCell>
        <mxCell id="JlWPOsAmAVWqgajGKJni-143" value="target_&lt;br&gt;amount" style="ellipse;whiteSpace=wrap;html=1;aspect=fixed;fillColor=#dae8fc;strokeColor=#6c8ebf;" vertex="1" parent="1">
          <mxGeometry x="-170" y="-340" width="80" height="80" as="geometry" />
        </mxCell>
        <mxCell id="JlWPOsAmAVWqgajGKJni-144" value="description" style="ellipse;whiteSpace=wrap;html=1;aspect=fixed;fillColor=#dae8fc;strokeColor=#6c8ebf;" vertex="1" parent="1">
          <mxGeometry x="-60" y="-340" width="80" height="80" as="geometry" />
        </mxCell>
        <mxCell id="JlWPOsAmAVWqgajGKJni-145" value="&lt;i&gt;user_id&lt;/i&gt;" style="ellipse;whiteSpace=wrap;html=1;aspect=fixed;fillColor=#dae8fc;strokeColor=#6c8ebf;" vertex="1" parent="1">
          <mxGeometry x="20" y="-270" width="80" height="80" as="geometry" />
        </mxCell>
        <mxCell id="JlWPOsAmAVWqgajGKJni-146" value="&lt;u&gt;goal_id&lt;/u&gt;" style="ellipse;whiteSpace=wrap;html=1;aspect=fixed;fillColor=#dae8fc;strokeColor=#6c8ebf;" vertex="1" parent="1">
          <mxGeometry x="30" y="-160" width="80" height="80" as="geometry" />
        </mxCell>
        <mxCell id="JlWPOsAmAVWqgajGKJni-147" value="start_date" style="ellipse;whiteSpace=wrap;html=1;aspect=fixed;fillColor=#dae8fc;strokeColor=#6c8ebf;" vertex="1" parent="1">
          <mxGeometry x="-250" y="-270" width="80" height="80" as="geometry" />
        </mxCell>
        <mxCell id="JlWPOsAmAVWqgajGKJni-148" value="end_date" style="ellipse;whiteSpace=wrap;html=1;aspect=fixed;fillColor=#dae8fc;strokeColor=#6c8ebf;" vertex="1" parent="1">
          <mxGeometry x="-260" y="-160" width="80" height="80" as="geometry" />
        </mxCell>
        <mxCell id="JlWPOsAmAVWqgajGKJni-151" value="timestamp" style="ellipse;whiteSpace=wrap;html=1;aspect=fixed;fillColor=#dae8fc;strokeColor=#6c8ebf;" vertex="1" parent="1">
          <mxGeometry x="-430" y="135" width="80" height="80" as="geometry" />
        </mxCell>
        <mxCell id="JlWPOsAmAVWqgajGKJni-152" value="description" style="ellipse;whiteSpace=wrap;html=1;aspect=fixed;fillColor=#dae8fc;strokeColor=#6c8ebf;" vertex="1" parent="1">
          <mxGeometry x="-540" y="100" width="80" height="80" as="geometry" />
        </mxCell>
        <mxCell id="JlWPOsAmAVWqgajGKJni-153" value="amount" style="ellipse;whiteSpace=wrap;html=1;aspect=fixed;fillColor=#dae8fc;strokeColor=#6c8ebf;" vertex="1" parent="1">
          <mxGeometry x="-590" width="80" height="80" as="geometry" />
        </mxCell>
        <mxCell id="JlWPOsAmAVWqgajGKJni-154" value="type" style="ellipse;whiteSpace=wrap;html=1;aspect=fixed;fillColor=#dae8fc;strokeColor=#6c8ebf;" vertex="1" parent="1">
          <mxGeometry x="-560" y="-100" width="80" height="80" as="geometry" />
        </mxCell>
        <mxCell id="JlWPOsAmAVWqgajGKJni-155" value="user_id" style="ellipse;whiteSpace=wrap;html=1;aspect=fixed;fillColor=#dae8fc;strokeColor=#6c8ebf;fontStyle=2" vertex="1" parent="1">
          <mxGeometry x="-470" y="-150" width="80" height="80" as="geometry" />
        </mxCell>
        <mxCell id="JlWPOsAmAVWqgajGKJni-156" value="investment_id" style="ellipse;whiteSpace=wrap;html=1;aspect=fixed;fillColor=#dae8fc;strokeColor=#6c8ebf;fontStyle=4" vertex="1" parent="1">
          <mxGeometry x="-370" y="-120" width="80" height="80" as="geometry" />
        </mxCell>
        <mxCell id="JlWPOsAmAVWqgajGKJni-157" style="rounded=0;orthogonalLoop=1;jettySize=auto;html=1;exitX=1;exitY=0.75;exitDx=0;exitDy=0;entryX=-0.016;entryY=0.571;entryDx=0;entryDy=0;entryPerimeter=0;" edge="1" parent="1" source="JlWPOsAmAVWqgajGKJni-142" target="JlWPOsAmAVWqgajGKJni-146">
          <mxGeometry relative="1" as="geometry" />
        </mxCell>
        <mxCell id="JlWPOsAmAVWqgajGKJni-158" style="rounded=0;orthogonalLoop=1;jettySize=auto;html=1;exitX=1;exitY=0;exitDx=0;exitDy=0;entryX=0.072;entryY=0.783;entryDx=0;entryDy=0;entryPerimeter=0;" edge="1" parent="1" source="JlWPOsAmAVWqgajGKJni-142" target="JlWPOsAmAVWqgajGKJni-145">
          <mxGeometry relative="1" as="geometry" />
        </mxCell>
        <mxCell id="JlWPOsAmAVWqgajGKJni-159" style="rounded=0;orthogonalLoop=1;jettySize=auto;html=1;exitX=0.75;exitY=0;exitDx=0;exitDy=0;entryX=0.309;entryY=0.991;entryDx=0;entryDy=0;entryPerimeter=0;" edge="1" parent="1" source="JlWPOsAmAVWqgajGKJni-142" target="JlWPOsAmAVWqgajGKJni-144">
          <mxGeometry relative="1" as="geometry" />
        </mxCell>
        <mxCell id="JlWPOsAmAVWqgajGKJni-160" style="rounded=0;orthogonalLoop=1;jettySize=auto;html=1;exitX=0.25;exitY=0;exitDx=0;exitDy=0;entryX=0.706;entryY=1.028;entryDx=0;entryDy=0;entryPerimeter=0;" edge="1" parent="1" source="JlWPOsAmAVWqgajGKJni-142" target="JlWPOsAmAVWqgajGKJni-143">
          <mxGeometry relative="1" as="geometry" />
        </mxCell>
        <mxCell id="JlWPOsAmAVWqgajGKJni-161" style="rounded=0;orthogonalLoop=1;jettySize=auto;html=1;exitX=0;exitY=0;exitDx=0;exitDy=0;entryX=1;entryY=0.75;entryDx=0;entryDy=0;entryPerimeter=0;" edge="1" parent="1" source="JlWPOsAmAVWqgajGKJni-142" target="JlWPOsAmAVWqgajGKJni-147">
          <mxGeometry relative="1" as="geometry" />
        </mxCell>
        <mxCell id="JlWPOsAmAVWqgajGKJni-163" style="rounded=0;orthogonalLoop=1;jettySize=auto;html=1;exitX=0;exitY=0.75;exitDx=0;exitDy=0;entryX=1.061;entryY=0.563;entryDx=0;entryDy=0;entryPerimeter=0;" edge="1" parent="1" source="JlWPOsAmAVWqgajGKJni-142" target="JlWPOsAmAVWqgajGKJni-148">
          <mxGeometry relative="1" as="geometry" />
        </mxCell>
        <mxCell id="JlWPOsAmAVWqgajGKJni-164" style="rounded=0;orthogonalLoop=1;jettySize=auto;html=1;exitX=1;exitY=0;exitDx=0;exitDy=0;entryX=0.355;entryY=1.004;entryDx=0;entryDy=0;entryPerimeter=0;" edge="1" parent="1" source="JlWPOsAmAVWqgajGKJni-138" target="JlWPOsAmAVWqgajGKJni-156">
          <mxGeometry relative="1" as="geometry" />
        </mxCell>
        <mxCell id="JlWPOsAmAVWqgajGKJni-165" style="rounded=0;orthogonalLoop=1;jettySize=auto;html=1;entryX=0.605;entryY=0.979;entryDx=0;entryDy=0;entryPerimeter=0;" edge="1" parent="1" source="JlWPOsAmAVWqgajGKJni-138" target="JlWPOsAmAVWqgajGKJni-155">
          <mxGeometry relative="1" as="geometry" />
        </mxCell>
        <mxCell id="JlWPOsAmAVWqgajGKJni-168" style="rounded=0;orthogonalLoop=1;jettySize=auto;html=1;exitX=0;exitY=1;exitDx=0;exitDy=0;entryX=0.946;entryY=0.321;entryDx=0;entryDy=0;entryPerimeter=0;" edge="1" parent="1" source="JlWPOsAmAVWqgajGKJni-138" target="JlWPOsAmAVWqgajGKJni-152">
          <mxGeometry relative="1" as="geometry" />
        </mxCell>
      </root>
    </mxGraphModel>
  </diagram>
</mxfile>
